<svg width="24" height="24" viewBox="0 0 24 24" fill="none" xmlns="http://www.w3.org/2000/svg">
<path opacity="0.8" d="M12.8992 2.52009L12.8692 2.59009L9.96922 9.32009H7.11922C6.43922 9.32009 5.79922 9.45009 5.19922 9.71009L6.94922 5.53009L6.98922 5.44009L7.04922 5.28009C7.07922 5.21009 7.09922 5.15009 7.12922 5.10009C8.43922 2.07009 9.91922 1.38009 12.8992 2.52009Z" fill="#F37747"/>
<path d="M18.2907 9.51953C17.8407 9.38953 17.3707 9.31953 16.8807 9.31953H9.9707L12.8707 2.58953L12.9007 2.51953C13.0407 2.56953 13.1907 2.63953 13.3407 2.68953L15.5507 3.61953C16.7807 4.12953 17.6407 4.65953 18.1707 5.29953C18.2607 5.41953 18.3407 5.52953 18.4207 5.65953C18.5107 5.79953 18.5807 5.93953 18.6207 6.08953C18.6607 6.17953 18.6907 6.25953 18.7107 6.34953C18.9707 7.19953 18.8107 8.22953 18.2907 9.51953Z" fill="#F37747"/>
<path opacity="0.4" d="M21.7602 14.2003V16.1503C21.7602 16.3503 21.7502 16.5503 21.7402 16.7403C21.5502 20.2403 19.6002 22.0003 15.9002 22.0003H8.10023C7.85023 22.0003 7.62023 21.9803 7.39023 21.9503C4.21023 21.7403 2.51023 20.0403 2.29023 16.8603C2.26023 16.6203 2.24023 16.3903 2.24023 16.1503V14.2003C2.24023 12.1903 3.46023 10.4603 5.20023 9.71031C5.80023 9.45031 6.44023 9.32031 7.12023 9.32031H16.8802C17.3702 9.32031 17.8402 9.39031 18.2902 9.52031C20.2902 10.1303 21.7602 11.9903 21.7602 14.2003Z" fill="#F37747"/>
<path opacity="0.6" d="M6.95023 5.5293L5.20023 9.70928C3.46023 10.4593 2.24023 12.1893 2.24023 14.1993V11.2693C2.24023 8.4293 4.26023 6.0593 6.95023 5.5293Z" fill="#F37747"/>
<path opacity="0.6" d="M21.7591 11.2698V14.1998C21.7591 11.9898 20.2891 10.1298 18.2891 9.51984C18.8091 8.22984 18.9691 7.19984 18.7091 6.34984C18.6891 6.25984 18.6591 6.17984 18.6191 6.08984C20.4891 7.05984 21.7591 9.02984 21.7591 11.2698Z" fill="#F37747"/>
<path d="M14.5 14.69H12.75V13C12.75 12.59 12.41 12.25 12 12.25C11.59 12.25 11.25 12.59 11.25 13V14.69H9.5C9.09 14.69 8.75 15.03 8.75 15.44C8.75 15.85 9.09 16.19 9.5 16.19H11.25V18C11.25 18.41 11.59 18.75 12 18.75C12.41 18.75 12.75 18.41 12.75 18V16.19H14.5C14.91 16.19 15.25 15.85 15.25 15.44C15.25 15.03 14.91 14.69 14.5 14.69Z" fill="#F37747"/>
</svg>
