<svg width="48" height="48" viewBox="0 0 48 48" fill="none" xmlns="http://www.w3.org/2000/svg">
<path d="M42.75 9V28.5C42.7451 29.493 42.3484 30.444 41.6462 31.1462C40.944 31.8484 39.993 32.2451 39 32.25H20.4375L21.0938 32.9062C21.3035 33.1153 21.4699 33.3637 21.5835 33.6372C21.6971 33.9107 21.7555 34.2039 21.7555 34.5C21.7555 34.7961 21.6971 35.0893 21.5835 35.3628C21.4699 35.6363 21.3035 35.8847 21.0938 36.0938C20.6692 36.5128 20.0966 36.7478 19.5 36.7478C18.9034 36.7478 18.3308 36.5128 17.9062 36.0938L13.4062 31.5938C13.1965 31.3847 13.0301 31.1363 12.9165 30.8628C12.8029 30.5893 12.7445 30.2961 12.7445 30C12.7445 29.7039 12.8029 29.4107 12.9165 29.1372C13.0301 28.8637 13.1965 28.6153 13.4062 28.4062L17.9062 23.9062C18.3289 23.4836 18.9022 23.2461 19.5 23.2461C20.0978 23.2461 20.6711 23.4836 21.0938 23.9062C21.5164 24.3289 21.7539 24.9022 21.7539 25.5C21.7539 26.0978 21.5164 26.6711 21.0938 27.0938L20.4375 27.75H38.25V9.75H18.75V10.5C18.75 11.0967 18.5129 11.669 18.091 12.091C17.669 12.5129 17.0967 12.75 16.5 12.75C15.9033 12.75 15.331 12.5129 14.909 12.091C14.4871 11.669 14.25 11.0967 14.25 10.5V9C14.2549 8.00696 14.6516 7.05599 15.3538 6.35379C16.056 5.6516 17.007 5.25493 18 5.25H39C39.993 5.25493 40.944 5.6516 41.6462 6.35379C42.3484 7.05599 42.7451 8.00696 42.75 9ZM31.5 35.25C30.9033 35.25 30.331 35.4871 29.909 35.909C29.4871 36.331 29.25 36.9033 29.25 37.5V38.25H9.75V20.25H27.5625L26.9062 20.9062C26.6965 21.1153 26.5301 21.3637 26.4165 21.6372C26.3029 21.9107 26.2445 22.2039 26.2445 22.5C26.2445 22.7961 26.3029 23.0893 26.4165 23.3628C26.5301 23.6363 26.6965 23.8847 26.9062 24.0938C27.3308 24.5128 27.9034 24.7478 28.5 24.7478C29.0966 24.7478 29.6692 24.5128 30.0938 24.0938L34.5938 19.5938C34.8035 19.3847 34.9699 19.1363 35.0835 18.8628C35.1971 18.5893 35.2555 18.2961 35.2555 18C35.2555 17.7039 35.1971 17.4107 35.0835 17.1372C34.9699 16.8637 34.8035 16.6153 34.5938 16.4062L30.0938 11.9062C29.6711 11.4836 29.0978 11.2461 28.5 11.2461C27.9022 11.2461 27.3289 11.4836 26.9062 11.9062C26.4836 12.3289 26.2461 12.9022 26.2461 13.5C26.2461 14.0978 26.4836 14.6711 26.9062 15.0938L27.5625 15.75H9C8.00696 15.7549 7.05599 16.1516 6.35379 16.8538C5.6516 17.556 5.25493 18.507 5.25 19.5V39C5.25493 39.993 5.6516 40.944 6.35379 41.6462C7.05599 42.3484 8.00696 42.7451 9 42.75H30C30.993 42.7451 31.944 42.3484 32.6462 41.6462C33.3484 40.944 33.7451 39.993 33.75 39V37.5C33.75 36.9033 33.5129 36.331 33.091 35.909C32.669 35.4871 32.0967 35.25 31.5 35.25Z" fill="#F37846"/>
</svg>
